<?xml version="1.0" encoding="utf-8"?>
<!-- Generator: Adobe Illustrator 19.2.1, SVG Export Plug-In . SVG Version: 6.00 Build 0)  -->
<svg version="1.1" id="Layer_1" xmlns="http://www.w3.org/2000/svg" xmlns:xlink="http://www.w3.org/1999/xlink" x="0px" y="0px"
	 viewBox="0 0 100 100" style="enable-background:new 0 0 100 100;" xml:space="preserve">
<style type="text/css">
	.st0{fill:#F0DB4F;}
	.st1{fill:#323330;}
</style>
<path class="st0" d="M2,2h96v96H2L2,2z"/>
<path class="st1" d="M90.1,75.1c-0.7-4.4-3.6-8.1-12-11.5c-2.9-1.4-6.2-2.3-7.2-4.5c-0.3-1.3-0.4-2-0.2-2.8c0.6-2.5,3.7-3.3,6.1-2.6
	c1.6,0.5,3,1.7,3.9,3.6c4.1-2.7,4.1-2.7,7-4.5c-1.1-1.6-1.6-2.4-2.3-3.1c-2.5-2.8-5.9-4.2-11.3-4.1l-2.8,0.4c-2.7,0.7-5.3,2.1-6.8,4
	c-4.5,5.2-3.2,14.2,2.3,17.9c5.4,4.1,13.5,5,14.5,8.8c1,4.7-3.4,6.2-7.8,5.7c-3.2-0.7-5.1-2.3-7-5.3c-3.6,2.1-3.6,2.1-7.3,4.2
	c0.9,1.9,1.8,2.8,3.3,4.4c7,7.1,24.4,6.7,27.5-4C90,81.3,90.8,78.9,90.1,75.1z M54.2,46.1h-9l0,23.2c0,4.9,0.3,9.5-0.5,10.9
	c-1.3,2.7-4.7,2.4-6.3,1.9c-1.6-0.8-2.4-1.9-3.3-3.4c-0.3-0.4-0.4-0.8-0.5-0.8l-7.3,4.5c1.2,2.5,3,4.7,5.3,6.1
	c3.4,2.1,8,2.7,12.8,1.6c3.1-0.9,5.8-2.8,7.2-5.7c2-3.8,1.6-8.3,1.6-13.4C54.2,62.6,54.2,54.4,54.2,46.1z"/>
</svg>
